<mxfile host="app.diagrams.net" modified="2023-06-24T05:37:34.413Z" agent="Mozilla/5.0 (Macintosh; Intel Mac OS X 10_15_7) AppleWebKit/537.36 (KHTML, like Gecko) Chrome/114.0.0.0 Safari/537.36" etag="xC-sUee3Jra59muJPX3U" version="21.5.0" type="github" pages="2">
  <diagram name="Seite-1" id="oyB1J4lQSQryITBCKR3E">
    <mxGraphModel grid="1" page="1" gridSize="10" guides="1" tooltips="1" connect="1" arrows="1" fold="1" pageScale="1" pageWidth="827" pageHeight="1169" math="0" shadow="0">
      <root>
        <mxCell id="0" />
        <mxCell id="1" parent="0" />
        <mxCell id="EEiRr2LU-W_r3cA7hqpR-35" value="" style="rounded=0;html=1;jettySize=auto;orthogonalLoop=1;fontSize=11;endArrow=block;endFill=0;endSize=8;strokeWidth=1;shadow=0;labelBackgroundColor=none;edgeStyle=orthogonalEdgeStyle;" parent="1" source="EEiRr2LU-W_r3cA7hqpR-36" target="EEiRr2LU-W_r3cA7hqpR-39" edge="1">
          <mxGeometry relative="1" as="geometry" />
        </mxCell>
        <mxCell id="EEiRr2LU-W_r3cA7hqpR-36" value="Landingpage&lt;br&gt;(shows av. nodes + docs)" style="rounded=1;whiteSpace=wrap;html=1;fontSize=12;glass=0;strokeWidth=1;shadow=0;" parent="1" vertex="1">
          <mxGeometry x="352.5" y="50" width="120" height="50" as="geometry" />
        </mxCell>
        <mxCell id="EEiRr2LU-W_r3cA7hqpR-37" value="Yes" style="rounded=0;html=1;jettySize=auto;orthogonalLoop=1;fontSize=11;endArrow=block;endFill=0;endSize=8;strokeWidth=1;shadow=0;labelBackgroundColor=none;edgeStyle=orthogonalEdgeStyle;" parent="1" source="EEiRr2LU-W_r3cA7hqpR-39" target="EEiRr2LU-W_r3cA7hqpR-44" edge="1">
          <mxGeometry y="20" relative="1" as="geometry">
            <mxPoint as="offset" />
          </mxGeometry>
        </mxCell>
        <mxCell id="EEiRr2LU-W_r3cA7hqpR-38" value="" style="edgeStyle=orthogonalEdgeStyle;rounded=0;html=1;jettySize=auto;orthogonalLoop=1;fontSize=11;endArrow=block;endFill=0;endSize=8;strokeWidth=1;shadow=0;labelBackgroundColor=none;" parent="1" source="EEiRr2LU-W_r3cA7hqpR-39" target="EEiRr2LU-W_r3cA7hqpR-41" edge="1">
          <mxGeometry y="10" relative="1" as="geometry">
            <mxPoint as="offset" />
          </mxGeometry>
        </mxCell>
        <mxCell id="EEiRr2LU-W_r3cA7hqpR-39" value="Signin" style="rhombus;whiteSpace=wrap;html=1;shadow=0;fontFamily=Helvetica;fontSize=12;align=center;strokeWidth=1;spacing=6;spacingTop=-4;" parent="1" vertex="1">
          <mxGeometry x="362.5" y="150" width="100" height="80" as="geometry" />
        </mxCell>
        <mxCell id="EEiRr2LU-W_r3cA7hqpR-40" style="edgeStyle=orthogonalEdgeStyle;rounded=0;orthogonalLoop=1;jettySize=auto;html=1;" parent="1" source="EEiRr2LU-W_r3cA7hqpR-41" target="EEiRr2LU-W_r3cA7hqpR-48" edge="1">
          <mxGeometry relative="1" as="geometry" />
        </mxCell>
        <mxCell id="EEiRr2LU-W_r3cA7hqpR-41" value="Authentic" style="rounded=1;whiteSpace=wrap;html=1;fontSize=12;glass=0;strokeWidth=1;shadow=0;" parent="1" vertex="1">
          <mxGeometry x="512.5" y="170" width="120" height="40" as="geometry" />
        </mxCell>
        <mxCell id="EEiRr2LU-W_r3cA7hqpR-42" value="" style="rounded=0;html=1;jettySize=auto;orthogonalLoop=1;fontSize=11;endArrow=block;endFill=0;endSize=8;strokeWidth=1;shadow=0;labelBackgroundColor=none;edgeStyle=orthogonalEdgeStyle;" parent="1" source="EEiRr2LU-W_r3cA7hqpR-44" target="EEiRr2LU-W_r3cA7hqpR-47" edge="1">
          <mxGeometry x="0.3333" y="20" relative="1" as="geometry">
            <mxPoint as="offset" />
          </mxGeometry>
        </mxCell>
        <mxCell id="EEiRr2LU-W_r3cA7hqpR-43" value="Yes" style="edgeStyle=orthogonalEdgeStyle;rounded=0;html=1;jettySize=auto;orthogonalLoop=1;fontSize=11;endArrow=block;endFill=0;endSize=8;strokeWidth=1;shadow=0;labelBackgroundColor=none;" parent="1" source="EEiRr2LU-W_r3cA7hqpR-44" target="EEiRr2LU-W_r3cA7hqpR-48" edge="1">
          <mxGeometry y="10" relative="1" as="geometry">
            <mxPoint as="offset" />
          </mxGeometry>
        </mxCell>
        <mxCell id="EEiRr2LU-W_r3cA7hqpR-44" value="Redirect verify user in DB" style="rhombus;whiteSpace=wrap;html=1;shadow=0;fontFamily=Helvetica;fontSize=12;align=center;strokeWidth=1;spacing=6;spacingTop=-4;" parent="1" vertex="1">
          <mxGeometry x="362.5" y="270" width="100" height="80" as="geometry" />
        </mxCell>
        <mxCell id="EEiRr2LU-W_r3cA7hqpR-45" style="edgeStyle=orthogonalEdgeStyle;rounded=0;orthogonalLoop=1;jettySize=auto;html=1;entryX=0.5;entryY=0;entryDx=0;entryDy=0;" parent="1" source="EEiRr2LU-W_r3cA7hqpR-47" target="EEiRr2LU-W_r3cA7hqpR-55" edge="1">
          <mxGeometry relative="1" as="geometry">
            <mxPoint x="592.5" y="460" as="targetPoint" />
          </mxGeometry>
        </mxCell>
        <mxCell id="EEiRr2LU-W_r3cA7hqpR-46" style="edgeStyle=orthogonalEdgeStyle;rounded=0;orthogonalLoop=1;jettySize=auto;html=1;entryX=0.5;entryY=0;entryDx=0;entryDy=0;" parent="1" source="EEiRr2LU-W_r3cA7hqpR-47" target="EEiRr2LU-W_r3cA7hqpR-53" edge="1">
          <mxGeometry relative="1" as="geometry">
            <mxPoint x="245.73999999999978" y="476" as="targetPoint" />
          </mxGeometry>
        </mxCell>
        <mxCell id="s5_odyK9Tq23q0nwJr0p-11" value="" style="edgeStyle=orthogonalEdgeStyle;rounded=0;orthogonalLoop=1;jettySize=auto;html=1;" edge="1" parent="1" source="EEiRr2LU-W_r3cA7hqpR-47" target="s5_odyK9Tq23q0nwJr0p-10">
          <mxGeometry relative="1" as="geometry" />
        </mxCell>
        <mxCell id="EEiRr2LU-W_r3cA7hqpR-47" value="Available Nodes" style="rounded=1;whiteSpace=wrap;html=1;fontSize=12;glass=0;strokeWidth=1;shadow=0;" parent="1" vertex="1">
          <mxGeometry x="352.5" y="410" width="120" height="40" as="geometry" />
        </mxCell>
        <mxCell id="EEiRr2LU-W_r3cA7hqpR-48" value="Token" style="rounded=1;whiteSpace=wrap;html=1;fontSize=12;glass=0;strokeWidth=1;shadow=0;" parent="1" vertex="1">
          <mxGeometry x="512.5" y="290" width="120" height="40" as="geometry" />
        </mxCell>
        <mxCell id="s5_odyK9Tq23q0nwJr0p-2" value="" style="edgeStyle=orthogonalEdgeStyle;rounded=0;orthogonalLoop=1;jettySize=auto;html=1;" edge="1" parent="1" source="EEiRr2LU-W_r3cA7hqpR-49" target="s5_odyK9Tq23q0nwJr0p-1">
          <mxGeometry relative="1" as="geometry" />
        </mxCell>
        <mxCell id="EEiRr2LU-W_r3cA7hqpR-49" value="Lease your marchien" style="rounded=1;whiteSpace=wrap;html=1;fontSize=12;glass=0;strokeWidth=1;shadow=0;" parent="1" vertex="1">
          <mxGeometry x="606" y="906" width="120" height="40" as="geometry" />
        </mxCell>
        <mxCell id="EEiRr2LU-W_r3cA7hqpR-50" style="edgeStyle=orthogonalEdgeStyle;rounded=0;orthogonalLoop=1;jettySize=auto;html=1;" parent="1" source="EEiRr2LU-W_r3cA7hqpR-51" target="EEiRr2LU-W_r3cA7hqpR-58" edge="1">
          <mxGeometry relative="1" as="geometry" />
        </mxCell>
        <mxCell id="EEiRr2LU-W_r3cA7hqpR-51" value="Available Nodes" style="rounded=1;whiteSpace=wrap;html=1;fontSize=12;glass=0;strokeWidth=1;shadow=0;" parent="1" vertex="1">
          <mxGeometry x="52.5" y="609" width="120" height="40" as="geometry" />
        </mxCell>
        <mxCell id="EEiRr2LU-W_r3cA7hqpR-52" style="edgeStyle=orthogonalEdgeStyle;rounded=0;orthogonalLoop=1;jettySize=auto;html=1;" parent="1" source="EEiRr2LU-W_r3cA7hqpR-53" target="EEiRr2LU-W_r3cA7hqpR-51" edge="1">
          <mxGeometry relative="1" as="geometry" />
        </mxCell>
        <mxCell id="EEiRr2LU-W_r3cA7hqpR-53" value="Client" style="rhombus;whiteSpace=wrap;html=1;shadow=0;fontFamily=Helvetica;fontSize=12;align=center;strokeWidth=1;spacing=6;spacingTop=-4;" parent="1" vertex="1">
          <mxGeometry x="62.5" y="479" width="100" height="80" as="geometry" />
        </mxCell>
        <mxCell id="EEiRr2LU-W_r3cA7hqpR-54" style="edgeStyle=orthogonalEdgeStyle;rounded=0;orthogonalLoop=1;jettySize=auto;html=1;" parent="1" source="EEiRr2LU-W_r3cA7hqpR-55" target="EEiRr2LU-W_r3cA7hqpR-49" edge="1">
          <mxGeometry relative="1" as="geometry" />
        </mxCell>
        <mxCell id="EEiRr2LU-W_r3cA7hqpR-55" value="Provider" style="rhombus;whiteSpace=wrap;html=1;shadow=0;fontFamily=Helvetica;fontSize=12;align=center;strokeWidth=1;spacing=6;spacingTop=-4;" parent="1" vertex="1">
          <mxGeometry x="616" y="786" width="100" height="80" as="geometry" />
        </mxCell>
        <mxCell id="EEiRr2LU-W_r3cA7hqpR-57" style="edgeStyle=orthogonalEdgeStyle;rounded=0;orthogonalLoop=1;jettySize=auto;html=1;entryX=0.5;entryY=0;entryDx=0;entryDy=0;" parent="1" source="EEiRr2LU-W_r3cA7hqpR-58" target="EEiRr2LU-W_r3cA7hqpR-63" edge="1">
          <mxGeometry relative="1" as="geometry">
            <mxPoint x="272.5" y="729" as="targetPoint" />
          </mxGeometry>
        </mxCell>
        <mxCell id="EEiRr2LU-W_r3cA7hqpR-58" value="rent and add to nodegroup" style="rhombus;whiteSpace=wrap;html=1;shadow=0;fontFamily=Helvetica;fontSize=12;align=center;strokeWidth=1;spacing=6;spacingTop=-4;" parent="1" vertex="1">
          <mxGeometry x="50" y="709" width="125" height="100" as="geometry" />
        </mxCell>
        <mxCell id="s5_odyK9Tq23q0nwJr0p-6" value="" style="edgeStyle=orthogonalEdgeStyle;rounded=0;orthogonalLoop=1;jettySize=auto;html=1;" edge="1" parent="1" source="EEiRr2LU-W_r3cA7hqpR-61" target="s5_odyK9Tq23q0nwJr0p-5">
          <mxGeometry relative="1" as="geometry" />
        </mxCell>
        <mxCell id="EEiRr2LU-W_r3cA7hqpR-61" value="Tainting and create namespace" style="rounded=1;whiteSpace=wrap;html=1;fontSize=12;glass=0;strokeWidth=1;shadow=0;" parent="1" vertex="1">
          <mxGeometry x="62.5" y="1001" width="120" height="70" as="geometry" />
        </mxCell>
        <mxCell id="EEiRr2LU-W_r3cA7hqpR-62" style="edgeStyle=orthogonalEdgeStyle;rounded=0;orthogonalLoop=1;jettySize=auto;html=1;" parent="1" source="EEiRr2LU-W_r3cA7hqpR-63" target="EEiRr2LU-W_r3cA7hqpR-61" edge="1">
          <mxGeometry relative="1" as="geometry">
            <mxPoint x="115" y="992" as="targetPoint" />
          </mxGeometry>
        </mxCell>
        <mxCell id="s5_odyK9Tq23q0nwJr0p-4" value="Setting up K8" style="edgeLabel;html=1;align=center;verticalAlign=middle;resizable=0;points=[];" connectable="0" vertex="1" parent="EEiRr2LU-W_r3cA7hqpR-62">
          <mxGeometry x="-0.1642" y="-1" relative="1" as="geometry">
            <mxPoint as="offset" />
          </mxGeometry>
        </mxCell>
        <mxCell id="EEiRr2LU-W_r3cA7hqpR-63" value="new nodegroup&lt;br&gt;or select existing&lt;br&gt;nodegroup" style="rhombus;whiteSpace=wrap;html=1;shadow=0;fontFamily=Helvetica;fontSize=12;align=center;strokeWidth=1;spacing=6;spacingTop=-4;" parent="1" vertex="1">
          <mxGeometry x="52.5" y="819" width="125" height="100" as="geometry" />
        </mxCell>
        <mxCell id="s5_odyK9Tq23q0nwJr0p-3" style="edgeStyle=orthogonalEdgeStyle;rounded=0;orthogonalLoop=1;jettySize=auto;html=1;entryX=1;entryY=0.5;entryDx=0;entryDy=0;" edge="1" parent="1" source="s5_odyK9Tq23q0nwJr0p-1" target="EEiRr2LU-W_r3cA7hqpR-58">
          <mxGeometry relative="1" as="geometry">
            <Array as="points">
              <mxPoint x="449" y="1050" />
              <mxPoint x="449" y="759" />
            </Array>
          </mxGeometry>
        </mxCell>
        <mxCell id="s5_odyK9Tq23q0nwJr0p-17" value="Makes node available to Clients" style="edgeLabel;html=1;align=center;verticalAlign=middle;resizable=0;points=[];" connectable="0" vertex="1" parent="s5_odyK9Tq23q0nwJr0p-3">
          <mxGeometry x="-0.1043" y="1" relative="1" as="geometry">
            <mxPoint x="-1" y="1" as="offset" />
          </mxGeometry>
        </mxCell>
        <mxCell id="s5_odyK9Tq23q0nwJr0p-1" value="Creating a Node" style="rhombus;whiteSpace=wrap;html=1;rounded=1;glass=0;strokeWidth=1;shadow=0;" vertex="1" parent="1">
          <mxGeometry x="626" y="1006" width="80" height="80" as="geometry" />
        </mxCell>
        <mxCell id="s5_odyK9Tq23q0nwJr0p-8" value="" style="edgeStyle=orthogonalEdgeStyle;rounded=0;orthogonalLoop=1;jettySize=auto;html=1;" edge="1" parent="1" source="s5_odyK9Tq23q0nwJr0p-5" target="s5_odyK9Tq23q0nwJr0p-7">
          <mxGeometry relative="1" as="geometry" />
        </mxCell>
        <mxCell id="s5_odyK9Tq23q0nwJr0p-5" value="Billing happens" style="rhombus;whiteSpace=wrap;html=1;rounded=1;glass=0;strokeWidth=1;shadow=0;" vertex="1" parent="1">
          <mxGeometry x="82.5" y="1113" width="80" height="80" as="geometry" />
        </mxCell>
        <mxCell id="s5_odyK9Tq23q0nwJr0p-12" style="edgeStyle=orthogonalEdgeStyle;rounded=0;orthogonalLoop=1;jettySize=auto;html=1;entryX=0;entryY=0.5;entryDx=0;entryDy=0;" edge="1" parent="1" source="s5_odyK9Tq23q0nwJr0p-7" target="s5_odyK9Tq23q0nwJr0p-10">
          <mxGeometry relative="1" as="geometry">
            <Array as="points">
              <mxPoint x="310" y="1256" />
              <mxPoint x="310" y="614" />
              <mxPoint x="437" y="614" />
            </Array>
          </mxGeometry>
        </mxCell>
        <mxCell id="s5_odyK9Tq23q0nwJr0p-7" value="Client connection modal to run stuff" style="whiteSpace=wrap;html=1;rounded=1;glass=0;strokeWidth=1;shadow=0;" vertex="1" parent="1">
          <mxGeometry x="62.5" y="1226" width="120" height="60" as="geometry" />
        </mxCell>
        <mxCell id="s5_odyK9Tq23q0nwJr0p-13" style="edgeStyle=orthogonalEdgeStyle;rounded=0;orthogonalLoop=1;jettySize=auto;html=1;entryX=0.095;entryY=0.45;entryDx=0;entryDy=0;entryPerimeter=0;exitX=1;exitY=0.5;exitDx=0;exitDy=0;" edge="1" parent="1" source="s5_odyK9Tq23q0nwJr0p-10" target="EEiRr2LU-W_r3cA7hqpR-55">
          <mxGeometry relative="1" as="geometry">
            <mxPoint x="465" y="943" as="sourcePoint" />
            <mxPoint x="502.5" y="539" as="targetPoint" />
            <Array as="points">
              <mxPoint x="492" y="603" />
              <mxPoint x="492" y="841" />
              <mxPoint x="494" y="841" />
              <mxPoint x="494" y="839" />
              <mxPoint x="509" y="839" />
              <mxPoint x="509" y="841" />
              <mxPoint x="626" y="841" />
            </Array>
          </mxGeometry>
        </mxCell>
        <mxCell id="s5_odyK9Tq23q0nwJr0p-14" value="Shows incoming money" style="edgeLabel;html=1;align=center;verticalAlign=middle;resizable=0;points=[];" connectable="0" vertex="1" parent="s5_odyK9Tq23q0nwJr0p-13">
          <mxGeometry x="-0.1642" y="2" relative="1" as="geometry">
            <mxPoint x="24" y="17" as="offset" />
          </mxGeometry>
        </mxCell>
        <mxCell id="s5_odyK9Tq23q0nwJr0p-15" style="edgeStyle=orthogonalEdgeStyle;rounded=0;orthogonalLoop=1;jettySize=auto;html=1;entryX=1;entryY=0.5;entryDx=0;entryDy=0;" edge="1" parent="1" source="s5_odyK9Tq23q0nwJr0p-10" target="EEiRr2LU-W_r3cA7hqpR-53">
          <mxGeometry relative="1" as="geometry" />
        </mxCell>
        <mxCell id="s5_odyK9Tq23q0nwJr0p-16" value="See current money spend" style="edgeLabel;html=1;align=center;verticalAlign=middle;resizable=0;points=[];" connectable="0" vertex="1" parent="s5_odyK9Tq23q0nwJr0p-15">
          <mxGeometry x="0.1039" y="-3" relative="1" as="geometry">
            <mxPoint x="1" y="1" as="offset" />
          </mxGeometry>
        </mxCell>
        <mxCell id="s5_odyK9Tq23q0nwJr0p-10" value="Dashboard" style="whiteSpace=wrap;html=1;rounded=1;glass=0;strokeWidth=1;shadow=0;" vertex="1" parent="1">
          <mxGeometry x="437" y="573" width="120" height="60" as="geometry" />
        </mxCell>
      </root>
    </mxGraphModel>
  </diagram>
  <diagram name="Mark" id="U20YnGkPYRGFCjqGyoIM">
    <mxGraphModel dx="1028" dy="522" grid="1" gridSize="10" guides="1" tooltips="1" connect="1" arrows="1" fold="1" page="1" pageScale="1" pageWidth="827" pageHeight="1169" math="0" shadow="0">
      <root>
        <mxCell id="lMakNlP7YPmwNP2zMPLx-0" />
        <mxCell id="lMakNlP7YPmwNP2zMPLx-1" parent="lMakNlP7YPmwNP2zMPLx-0" />
        <mxCell id="lMakNlP7YPmwNP2zMPLx-2" value="" style="rounded=0;html=1;jettySize=auto;orthogonalLoop=1;fontSize=11;endArrow=block;endFill=0;endSize=8;strokeWidth=1;shadow=0;labelBackgroundColor=none;edgeStyle=orthogonalEdgeStyle;" parent="lMakNlP7YPmwNP2zMPLx-1" source="lMakNlP7YPmwNP2zMPLx-3" target="lMakNlP7YPmwNP2zMPLx-6" edge="1">
          <mxGeometry relative="1" as="geometry" />
        </mxCell>
        <mxCell id="L4o1jWjbPwMp0_FglPyr-25" style="edgeStyle=orthogonalEdgeStyle;rounded=0;orthogonalLoop=1;jettySize=auto;html=1;exitX=0.5;exitY=1;exitDx=0;exitDy=0;entryX=0.5;entryY=0;entryDx=0;entryDy=0;" parent="lMakNlP7YPmwNP2zMPLx-1" source="lMakNlP7YPmwNP2zMPLx-3" target="L4o1jWjbPwMp0_FglPyr-1" edge="1">
          <mxGeometry relative="1" as="geometry" />
        </mxCell>
        <mxCell id="lMakNlP7YPmwNP2zMPLx-3" value="Landingpage&lt;br&gt;(shows av. nodes + docs)" style="rounded=1;whiteSpace=wrap;html=1;fontSize=12;glass=0;strokeWidth=1;shadow=0;fillColor=#B9E0A5;" parent="lMakNlP7YPmwNP2zMPLx-1" vertex="1">
          <mxGeometry x="140" y="165" width="120" height="50" as="geometry" />
        </mxCell>
        <mxCell id="lMakNlP7YPmwNP2zMPLx-4" value="Yes" style="rounded=0;html=1;jettySize=auto;orthogonalLoop=1;fontSize=11;endArrow=block;endFill=0;endSize=8;strokeWidth=1;shadow=0;labelBackgroundColor=none;edgeStyle=orthogonalEdgeStyle;" parent="lMakNlP7YPmwNP2zMPLx-1" source="lMakNlP7YPmwNP2zMPLx-6" target="lMakNlP7YPmwNP2zMPLx-11" edge="1">
          <mxGeometry y="20" relative="1" as="geometry">
            <mxPoint as="offset" />
          </mxGeometry>
        </mxCell>
        <mxCell id="lMakNlP7YPmwNP2zMPLx-5" value="No" style="edgeStyle=orthogonalEdgeStyle;rounded=0;html=1;jettySize=auto;orthogonalLoop=1;fontSize=11;endArrow=block;endFill=0;endSize=8;strokeWidth=1;shadow=0;labelBackgroundColor=none;" parent="lMakNlP7YPmwNP2zMPLx-1" source="lMakNlP7YPmwNP2zMPLx-6" target="lMakNlP7YPmwNP2zMPLx-8" edge="1">
          <mxGeometry y="10" relative="1" as="geometry">
            <mxPoint as="offset" />
          </mxGeometry>
        </mxCell>
        <mxCell id="lMakNlP7YPmwNP2zMPLx-6" value="Signed On?" style="rhombus;whiteSpace=wrap;html=1;shadow=0;fontFamily=Helvetica;fontSize=12;align=center;strokeWidth=1;spacing=6;spacingTop=-4;fillColor=#B9E0A5;" parent="lMakNlP7YPmwNP2zMPLx-1" vertex="1">
          <mxGeometry x="362.5" y="150" width="100" height="80" as="geometry" />
        </mxCell>
        <mxCell id="lMakNlP7YPmwNP2zMPLx-7" style="edgeStyle=orthogonalEdgeStyle;rounded=0;orthogonalLoop=1;jettySize=auto;html=1;" parent="lMakNlP7YPmwNP2zMPLx-1" source="lMakNlP7YPmwNP2zMPLx-8" target="lMakNlP7YPmwNP2zMPLx-15" edge="1">
          <mxGeometry relative="1" as="geometry" />
        </mxCell>
        <mxCell id="lMakNlP7YPmwNP2zMPLx-8" value="Authentic" style="rounded=1;whiteSpace=wrap;html=1;fontSize=12;glass=0;strokeWidth=1;shadow=0;fillColor=#B9E0A5;" parent="lMakNlP7YPmwNP2zMPLx-1" vertex="1">
          <mxGeometry x="512.5" y="170" width="120" height="40" as="geometry" />
        </mxCell>
        <mxCell id="L4o1jWjbPwMp0_FglPyr-11" style="edgeStyle=orthogonalEdgeStyle;rounded=0;orthogonalLoop=1;jettySize=auto;html=1;exitX=0.5;exitY=1;exitDx=0;exitDy=0;" parent="lMakNlP7YPmwNP2zMPLx-1" source="lMakNlP7YPmwNP2zMPLx-11" edge="1">
          <mxGeometry relative="1" as="geometry">
            <mxPoint x="110" y="410" as="targetPoint" />
          </mxGeometry>
        </mxCell>
        <mxCell id="L4o1jWjbPwMp0_FglPyr-26" style="edgeStyle=orthogonalEdgeStyle;rounded=0;orthogonalLoop=1;jettySize=auto;html=1;" parent="lMakNlP7YPmwNP2zMPLx-1" target="L4o1jWjbPwMp0_FglPyr-5" edge="1">
          <mxGeometry relative="1" as="geometry">
            <mxPoint x="413" y="380" as="sourcePoint" />
          </mxGeometry>
        </mxCell>
        <mxCell id="Nx-bEh1wznVE_e6RohJJ-0" style="edgeStyle=orthogonalEdgeStyle;rounded=0;orthogonalLoop=1;jettySize=auto;html=1;exitX=0.5;exitY=1;exitDx=0;exitDy=0;entryX=0.5;entryY=0;entryDx=0;entryDy=0;" edge="1" parent="lMakNlP7YPmwNP2zMPLx-1" source="lMakNlP7YPmwNP2zMPLx-11" target="lMakNlP7YPmwNP2zMPLx-14">
          <mxGeometry relative="1" as="geometry" />
        </mxCell>
        <mxCell id="lMakNlP7YPmwNP2zMPLx-11" value="Redirect &lt;br&gt;verify user&lt;br&gt;&amp;nbsp;in DB" style="rhombus;whiteSpace=wrap;html=1;shadow=0;fontFamily=Helvetica;fontSize=12;align=center;strokeWidth=1;spacing=6;spacingTop=-4;fillColor=#B9E0A5;" parent="lMakNlP7YPmwNP2zMPLx-1" vertex="1">
          <mxGeometry x="362.5" y="270" width="100" height="80" as="geometry" />
        </mxCell>
        <mxCell id="L4o1jWjbPwMp0_FglPyr-13" style="edgeStyle=orthogonalEdgeStyle;rounded=0;orthogonalLoop=1;jettySize=auto;html=1;" parent="lMakNlP7YPmwNP2zMPLx-1" source="lMakNlP7YPmwNP2zMPLx-14" target="lMakNlP7YPmwNP2zMPLx-25" edge="1">
          <mxGeometry relative="1" as="geometry" />
        </mxCell>
        <mxCell id="L4o1jWjbPwMp0_FglPyr-16" style="edgeStyle=orthogonalEdgeStyle;rounded=0;orthogonalLoop=1;jettySize=auto;html=1;exitX=0.5;exitY=1;exitDx=0;exitDy=0;entryX=0.5;entryY=0;entryDx=0;entryDy=0;" parent="lMakNlP7YPmwNP2zMPLx-1" source="lMakNlP7YPmwNP2zMPLx-14" target="L4o1jWjbPwMp0_FglPyr-15" edge="1">
          <mxGeometry relative="1" as="geometry" />
        </mxCell>
        <mxCell id="lMakNlP7YPmwNP2zMPLx-14" value="Available Nodes&lt;br&gt;(&amp;amp; detailed GPU info)" style="rounded=1;whiteSpace=wrap;html=1;fontSize=12;glass=0;strokeWidth=1;shadow=0;fillColor=#FFF2CC;" parent="lMakNlP7YPmwNP2zMPLx-1" vertex="1">
          <mxGeometry x="347" y="410" width="132.5" height="60" as="geometry" />
        </mxCell>
        <mxCell id="L4o1jWjbPwMp0_FglPyr-3" style="edgeStyle=orthogonalEdgeStyle;rounded=0;orthogonalLoop=1;jettySize=auto;html=1;exitX=0;exitY=0.5;exitDx=0;exitDy=0;" parent="lMakNlP7YPmwNP2zMPLx-1" source="lMakNlP7YPmwNP2zMPLx-15" target="lMakNlP7YPmwNP2zMPLx-11" edge="1">
          <mxGeometry relative="1" as="geometry" />
        </mxCell>
        <mxCell id="lMakNlP7YPmwNP2zMPLx-15" value="Token" style="rounded=1;whiteSpace=wrap;html=1;fontSize=12;glass=0;strokeWidth=1;shadow=0;fillColor=#B9E0A5;" parent="lMakNlP7YPmwNP2zMPLx-1" vertex="1">
          <mxGeometry x="512.5" y="290" width="120" height="40" as="geometry" />
        </mxCell>
        <mxCell id="L4o1jWjbPwMp0_FglPyr-24" style="edgeStyle=orthogonalEdgeStyle;rounded=0;orthogonalLoop=1;jettySize=auto;html=1;exitX=0.5;exitY=1;exitDx=0;exitDy=0;" parent="lMakNlP7YPmwNP2zMPLx-1" source="lMakNlP7YPmwNP2zMPLx-25" target="L4o1jWjbPwMp0_FglPyr-22" edge="1">
          <mxGeometry relative="1" as="geometry" />
        </mxCell>
        <mxCell id="lMakNlP7YPmwNP2zMPLx-25" value="Add machine&lt;br&gt;&amp;nbsp;to new or existing node group via dropdown&lt;br&gt;(cart) &amp;amp; taint now" style="rhombus;whiteSpace=wrap;html=1;shadow=0;fontFamily=Helvetica;fontSize=12;align=center;strokeWidth=1;spacing=6;spacingTop=-4;fillColor=#F19C99;" parent="lMakNlP7YPmwNP2zMPLx-1" vertex="1">
          <mxGeometry x="240" y="520" width="162.5" height="130" as="geometry" />
        </mxCell>
        <mxCell id="L4o1jWjbPwMp0_FglPyr-1" value="Docs" style="rounded=1;whiteSpace=wrap;html=1;fillColor=#B9E0A5;" parent="lMakNlP7YPmwNP2zMPLx-1" vertex="1">
          <mxGeometry x="140" y="260" width="120" height="60" as="geometry" />
        </mxCell>
        <mxCell id="L4o1jWjbPwMp0_FglPyr-31" style="edgeStyle=orthogonalEdgeStyle;rounded=0;orthogonalLoop=1;jettySize=auto;html=1;exitX=0.5;exitY=1;exitDx=0;exitDy=0;entryX=0.5;entryY=0;entryDx=0;entryDy=0;" parent="lMakNlP7YPmwNP2zMPLx-1" source="L4o1jWjbPwMp0_FglPyr-5" target="L4o1jWjbPwMp0_FglPyr-30" edge="1">
          <mxGeometry relative="1" as="geometry" />
        </mxCell>
        <mxCell id="L4o1jWjbPwMp0_FglPyr-5" value="Dashboard" style="rounded=1;whiteSpace=wrap;html=1;fillColor=#F19C99;" parent="lMakNlP7YPmwNP2zMPLx-1" vertex="1">
          <mxGeometry x="620" y="410" width="120" height="60" as="geometry" />
        </mxCell>
        <mxCell id="L4o1jWjbPwMp0_FglPyr-8" style="edgeStyle=orthogonalEdgeStyle;rounded=0;orthogonalLoop=1;jettySize=auto;html=1;exitX=0.5;exitY=1;exitDx=0;exitDy=0;entryX=0.5;entryY=0;entryDx=0;entryDy=0;" parent="lMakNlP7YPmwNP2zMPLx-1" source="L4o1jWjbPwMp0_FglPyr-7" edge="1">
          <mxGeometry relative="1" as="geometry">
            <mxPoint x="110" y="510" as="targetPoint" />
          </mxGeometry>
        </mxCell>
        <mxCell id="L4o1jWjbPwMp0_FglPyr-7" value="Listed Machines Page" style="rounded=1;whiteSpace=wrap;html=1;fillColor=#FFF2CC;" parent="lMakNlP7YPmwNP2zMPLx-1" vertex="1">
          <mxGeometry x="50" y="410" width="120" height="60" as="geometry" />
        </mxCell>
        <mxCell id="L4o1jWjbPwMp0_FglPyr-40" style="edgeStyle=orthogonalEdgeStyle;rounded=0;orthogonalLoop=1;jettySize=auto;html=1;exitX=0.5;exitY=1;exitDx=0;exitDy=0;entryX=0.481;entryY=-0.032;entryDx=0;entryDy=0;entryPerimeter=0;" parent="lMakNlP7YPmwNP2zMPLx-1" source="L4o1jWjbPwMp0_FglPyr-9" target="L4o1jWjbPwMp0_FglPyr-37" edge="1">
          <mxGeometry relative="1" as="geometry" />
        </mxCell>
        <mxCell id="L4o1jWjbPwMp0_FglPyr-9" value="List New Machine" style="rhombus;whiteSpace=wrap;html=1;shadow=0;fontFamily=Helvetica;fontSize=12;align=center;strokeWidth=1;spacing=6;spacingTop=-4;fillColor=#FFF2CC;" parent="lMakNlP7YPmwNP2zMPLx-1" vertex="1">
          <mxGeometry x="47.5" y="510" width="125" height="90" as="geometry" />
        </mxCell>
        <mxCell id="L4o1jWjbPwMp0_FglPyr-39" style="edgeStyle=orthogonalEdgeStyle;rounded=0;orthogonalLoop=1;jettySize=auto;html=1;exitX=0.5;exitY=1;exitDx=0;exitDy=0;entryX=0.486;entryY=-0.058;entryDx=0;entryDy=0;entryPerimeter=0;" parent="lMakNlP7YPmwNP2zMPLx-1" source="L4o1jWjbPwMp0_FglPyr-15" target="L4o1jWjbPwMp0_FglPyr-33" edge="1">
          <mxGeometry relative="1" as="geometry" />
        </mxCell>
        <mxCell id="L4o1jWjbPwMp0_FglPyr-15" value="Connect to&lt;br&gt;pre-existing NG&lt;br&gt;(cart)" style="rhombus;whiteSpace=wrap;html=1;shadow=0;fontFamily=Helvetica;fontSize=12;align=center;strokeWidth=1;spacing=6;spacingTop=-4;fillColor=#F19C99;" parent="lMakNlP7YPmwNP2zMPLx-1" vertex="1">
          <mxGeometry x="450" y="520" width="125" height="100" as="geometry" />
        </mxCell>
        <mxCell id="L4o1jWjbPwMp0_FglPyr-20" value="** Tainting happens at moment node added" style="text;html=1;strokeColor=none;fillColor=none;align=center;verticalAlign=middle;whiteSpace=wrap;rounded=0;" parent="lMakNlP7YPmwNP2zMPLx-1" vertex="1">
          <mxGeometry x="376.25" y="520" width="60" height="30" as="geometry" />
        </mxCell>
        <mxCell id="L4o1jWjbPwMp0_FglPyr-22" value="Remove node &lt;br&gt;from n.g.(cart) &lt;br&gt;&amp;amp; untaint" style="rhombus;whiteSpace=wrap;html=1;fillColor=#F19C99;" parent="lMakNlP7YPmwNP2zMPLx-1" vertex="1">
          <mxGeometry x="290" y="640" width="138.75" height="120" as="geometry" />
        </mxCell>
        <mxCell id="L4o1jWjbPwMp0_FglPyr-30" value="Client Panel View:&lt;br&gt;- Usage by N.G. (prom)&lt;br&gt;- Billing (stripe)&lt;br&gt;&lt;br&gt;Host Panel View:&lt;br&gt;- Earnings/Payouts (stripe)&lt;br&gt;- flop consumption (prom)&lt;br&gt;- Power calc tool (input $/kw)&lt;br&gt;&lt;div style=&quot;&quot;&gt;&lt;br&gt;&lt;/div&gt;" style="rounded=0;whiteSpace=wrap;html=1;align=left;fillColor=#F19C99;" parent="lMakNlP7YPmwNP2zMPLx-1" vertex="1">
          <mxGeometry x="600" y="540" width="160" height="170" as="geometry" />
        </mxCell>
        <mxCell id="L4o1jWjbPwMp0_FglPyr-33" value="Connection Modal + Kubectl Script" style="shape=cube;whiteSpace=wrap;html=1;boundedLbl=1;backgroundOutline=1;darkOpacity=0.05;darkOpacity2=0.1;fillColor=#F19C99;" parent="lMakNlP7YPmwNP2zMPLx-1" vertex="1">
          <mxGeometry x="455" y="660" width="120" height="80" as="geometry" />
        </mxCell>
        <mxCell id="L4o1jWjbPwMp0_FglPyr-37" value="Price and List&lt;br&gt;Machine Modal + K3s Script" style="shape=cube;whiteSpace=wrap;html=1;boundedLbl=1;backgroundOutline=1;darkOpacity=0.05;darkOpacity2=0.1;fillColor=#FFF2CC;" parent="lMakNlP7YPmwNP2zMPLx-1" vertex="1">
          <mxGeometry x="52.5" y="660" width="120" height="80" as="geometry" />
        </mxCell>
      </root>
    </mxGraphModel>
  </diagram>
</mxfile>
